<svg width="349" height="106" viewBox="0 0 349 106" fill="none" xmlns="http://www.w3.org/2000/svg">
<path d="M15.59 56.2506V11.2366H0V1.84593H42.4969V11.2366H26.8733V56.2506H15.59Z" fill="black"/>
<path d="M46.3167 5.69026C46.3167 2.41328 48.936 0 52.1514 0C55.3668 0 57.9861 2.41328 57.9861 5.69026C57.9861 8.89103 55.3668 11.3805 52.1514 11.3805C48.9276 11.389 46.3167 8.8995 46.3167 5.69026ZM46.6861 15.8345H57.5999V56.2506H46.6861V15.8345Z" fill="black"/>
<path d="M64.8534 15.8345H75.3979V23.1082H75.6245C77.908 17.943 81.9797 15.2333 88.1419 15.2333C97.0409 15.2333 102.044 20.8897 102.044 30.3481V56.2506H91.1306V32.6513C91.1306 27.3759 88.7044 24.3614 83.726 24.3614C78.7895 24.3614 75.7673 27.9771 75.7673 33.2609V56.2591H64.8534V15.8345Z" fill="black"/>
<path d="M133.888 15.8345H146.263L130.975 33.1762L147.01 56.2506H134.45L122.974 39.8149L120.137 42.9056V56.2506H109.223V1.84593H120.137V32.0416H120.288L133.888 15.8345Z" fill="black"/>
<path d="M184.83 43.8794C183.638 51.7543 176.385 56.9619 166.554 56.9619C154.297 56.9619 146.817 49.087 146.817 36.2246C146.817 23.3284 154.33 15.1148 166.143 15.1148C177.77 15.1148 185.166 22.922 185.166 35.2085V38.5617H157.546V39.2391C157.546 44.9294 161.248 48.816 166.739 48.816C170.659 48.816 173.799 46.9277 174.815 43.8794H184.83ZM157.663 31.8215H174.672C174.445 26.6562 171.087 23.2607 166.26 23.2607C161.508 23.2607 158.033 26.7663 157.663 31.8215Z" fill="black"/>
<path d="M190.774 15.8345H201.319V23.1082H201.545C202.931 18.0954 206.364 15.3434 211.074 15.3434C212.342 15.3434 213.391 15.4958 214.18 15.7583V25.4453C213.282 25.0642 211.788 24.8017 210.218 24.8017C204.836 24.8017 201.696 28.1211 201.696 33.8113V56.2421H190.783V15.8345H190.774Z" fill="black"/>
<path d="M256.635 56.2506V31.4827H227.033V56.2506H220.309V1.84593H227.033V25.3691H256.635V1.84593H263.36V56.2421H256.635V56.2506Z" fill="black"/>
<path d="M304.74 56.2506H298.569V49.7305H298.418C296.026 54.2945 292.063 56.6316 286.086 56.6316C277.598 56.6316 272.628 51.0938 272.628 42.1943V17.0453H279.134V41.0257C279.134 47.3934 282.089 50.8313 288.109 50.8313C294.422 50.8313 298.242 46.462 298.242 39.7895V17.0369H304.748V56.2506H304.74Z" fill="black"/>
<path d="M319.843 49.6119H319.692V56.2506H313.488V1.84593H319.994V23.413H320.145C322.572 19.1115 327.097 16.6643 332.596 16.6643C342.385 16.6643 349 24.6578 349 36.648C349 48.672 342.385 56.6316 332.478 56.6316C326.794 56.6232 322.345 54.1337 319.843 49.6119ZM319.952 36.6395C319.952 45.0817 324.511 50.8143 331.202 50.8143C337.927 50.8143 342.343 45.2765 342.343 36.6395C342.343 28.0448 337.935 22.4647 331.202 22.4647C324.511 22.4647 319.952 28.2396 319.952 36.6395Z" fill="black"/>
<path d="M0 104.78V76.9619H16.7488V80.0821H3.43912V89.6467H15.653V92.7328H3.43912V104.789H0V104.78Z" fill="black"/>
<path d="M18.4094 94.7562C18.4094 88.3543 22.1182 84.3839 27.6225 84.3839C33.1099 84.3839 36.8188 88.3543 36.8188 94.7562C36.8188 101.141 33.1099 105.129 27.6225 105.129C22.1182 105.129 18.4094 101.141 18.4094 94.7562ZM33.4386 94.7562C33.4386 90.0292 31.1459 87.3341 27.6309 87.3341C24.1159 87.3341 21.7979 90.0377 21.7979 94.7562C21.7979 99.4833 24.1075 102.178 27.6309 102.178C31.1459 102.178 33.4386 99.4833 33.4386 94.7562Z" fill="black"/>
<path d="M56.4927 104.78H53.3401V101.524H53.2643C52.0758 103.836 50.0106 105.129 46.9592 105.129C42.6182 105.129 40.081 102.297 40.081 97.7405V84.7326H43.4105V97.1538C43.4105 100.41 44.9194 102.17 47.996 102.17C51.2244 102.17 53.18 99.934 53.18 96.5162V84.7326H56.5095V104.78H56.4927Z" fill="black"/>
<path d="M60.7914 84.7325H63.9271V87.9292H64.0029C65.1156 85.7698 67.2313 84.3839 70.308 84.3839C74.6659 84.3839 77.1862 87.2151 77.1862 91.7721V104.788H73.8567V92.3672C73.8567 89.128 72.3478 87.3511 69.288 87.3511C66.1524 87.3511 64.1041 89.5871 64.1041 92.9793V104.78H60.7746V84.7325H60.7914Z" fill="black"/>
<path d="M80.4484 94.7563C80.4484 88.4734 83.8707 84.384 88.8777 84.384C91.7267 84.384 94.0195 85.7953 95.208 87.9888H95.2839V76.9619H98.6134V104.788H95.4356V101.396H95.3766C94.0953 103.709 91.8194 105.137 88.9535 105.137C83.8876 105.129 80.4484 101.039 80.4484 94.7563ZM83.8538 94.7563C83.8538 99.3048 86.0707 102.178 89.5857 102.178C93.008 102.178 95.3007 99.2453 95.3007 94.7563C95.3007 90.2843 93.008 87.3341 89.5857 87.3341C86.0707 87.3341 83.8538 90.2248 83.8538 94.7563Z" fill="black"/>
<path d="M102.297 99.1178C102.297 95.683 104.918 93.5235 109.504 93.26L115.202 92.9284V91.2535C115.202 88.805 113.592 87.3427 110.844 87.3427C108.282 87.3427 106.68 88.5584 106.259 90.5224H103.047C103.275 87.0536 106.217 84.3925 110.92 84.3925C115.581 84.3925 118.532 86.9346 118.532 90.9305V104.797H115.379V101.345H115.303C114.115 103.641 111.594 105.146 108.914 105.146C104.961 105.129 102.297 102.723 102.297 99.1178ZM115.202 97.1708V95.53L109.883 95.8616C107.203 96.0316 105.677 97.2304 105.677 99.1178C105.677 101.031 107.262 102.28 109.656 102.28C112.791 102.28 115.202 100.061 115.202 97.1708Z" fill="black"/>
<path d="M127.155 79.8865V84.7241H131.015V87.4787H127.155V99.3983C127.155 101.226 127.922 102.059 129.624 102.059C130.004 102.059 130.771 102 130.998 101.966V104.78C130.594 104.874 129.683 104.933 128.899 104.933C125.25 104.933 123.834 103.428 123.834 99.5684V87.4872H120.866V84.7326H123.834V79.895H127.155V79.8865Z" fill="black"/>
<path d="M134.302 79.0618C134.302 77.8886 135.238 76.9619 136.384 76.9619C137.548 76.9619 138.466 77.8886 138.466 79.0618C138.466 80.2181 137.548 81.1618 136.384 81.1618C135.238 81.1618 134.302 80.2181 134.302 79.0618ZM134.724 84.7326H138.053V104.788H134.724V84.7326Z" fill="black"/>
<path d="M141.569 94.7562C141.569 88.3543 145.277 84.3839 150.782 84.3839C156.269 84.3839 159.978 88.3543 159.978 94.7562C159.978 101.141 156.269 105.129 150.782 105.129C145.277 105.129 141.569 101.141 141.569 94.7562ZM156.598 94.7562C156.598 90.0292 154.305 87.3341 150.79 87.3341C147.275 87.3341 144.957 90.0377 144.957 94.7562C144.957 99.4833 147.267 102.178 150.79 102.178C154.297 102.178 156.598 99.4833 156.598 94.7562Z" fill="black"/>
<path d="M163.324 84.7325H166.46V87.9292H166.536C167.648 85.7698 169.764 84.3839 172.841 84.3839C177.199 84.3839 179.719 87.2151 179.719 91.7721V104.788H176.39V92.3672C176.39 89.128 174.881 87.3511 171.821 87.3511C168.685 87.3511 166.637 89.5871 166.637 92.9793V104.78H163.307V84.7325H163.324Z" fill="black"/>
</svg>
